<svg width="20" height="20" viewBox="0 0 20 20" fill="none" xmlns="http://www.w3.org/2000/svg">
<path d="M4.501 12.1725C4.501 11.2397 3.834 10.7733 2.5 10.7733V9.33651C3.17703 9.33651 3.67854 9.22367 4.00451 8.99799C4.33551 8.7673 4.501 8.41875 4.501 7.95235V5.61283C4.501 4.83049 4.77182 4.25626 5.31344 3.89017C5.86008 3.51905 6.67753 3.3335 7.7658 3.3335V4.7026C7.19408 4.72768 6.77783 4.84553 6.51705 5.05616C6.26128 5.26178 6.1334 5.57021 6.1334 5.98144V8.21564C6.1334 9.21364 5.55918 9.81043 4.41073 10.006V10.0963C5.55918 10.2768 6.1334 10.8711 6.1334 11.8791V14.1284C6.1334 14.5396 6.26128 14.8506 6.51705 15.0612C6.77282 15.2718 7.18907 15.3821 7.7658 15.3922V16.7688C6.60732 16.7588 5.77232 16.5607 5.26078 16.1745C4.75426 15.7934 4.501 15.174 4.501 14.3164V12.1725Z" fill="#9B9FAA"/>
<path d="M15.6043 14.4819C15.6043 15.2643 15.3536 15.8385 14.8521 16.2046C14.3556 16.5707 13.5582 16.7588 12.4599 16.7688V15.3922C12.9363 15.3872 13.3074 15.2894 13.5732 15.0988C13.839 14.9132 13.9719 14.5898 13.9719 14.1284V12.1575C13.9719 11.5506 14.1048 11.0817 14.3706 10.7508C14.6364 10.4198 15.0777 10.2016 15.6946 10.0963V10.006C14.5461 9.81043 13.9719 9.21364 13.9719 8.21564V5.98144C13.9719 5.57021 13.8566 5.26178 13.6259 5.05616C13.4002 4.84553 13.0115 4.72768 12.4599 4.7026V3.3335C13.5782 3.3335 14.3806 3.52658 14.8671 3.91273C15.3586 4.29388 15.6043 4.92076 15.6043 5.79338V7.95235C15.6043 8.45386 15.7623 8.80993 16.0782 9.02056C16.3992 9.23119 16.8731 9.33651 17.5 9.33651V10.7733C16.8832 10.7733 16.4117 10.8811 16.0858 11.0968C15.7648 11.3074 15.6043 11.666 15.6043 12.1725V14.4819Z" fill="#9B9FAA"/>
</svg>
